# Blender v2.78 (sub 0) OBJ File: ''
# www.blender.org
o object_1
v 7.357050 -10.428655 0.000002
v 18.532709 -10.428655 0.000002
v 18.532709 -16.640652 0.000003
v 7.357050 -16.640652 0.000003
v -3.818624 -10.428655 0.000002
v -3.818624 -16.640652 0.000003
v -14.994284 -10.428655 0.000002
v -14.994284 -16.640652 0.000003
v -26.169943 -10.428655 0.000002
v -26.169943 -16.640652 0.000003
v 28.941416 -15.321111 0.000002
v 28.941416 -22.426338 0.000004
v 28.941416 -8.215884 0.000001
v 12.588633 -22.426338 0.000004
v 20.765024 -22.426338 0.000004
v 15.756159 -6.484125 0.000001
v 17.134394 -6.087852 0.000001
v 20.606424 -3.255008 0.000001
v 28.941416 -1.110657 0.000000
v 19.644648 -4.438983 0.000001
v 21.293512 -1.928732 0.000000
v 18.460672 -5.400758 0.000001
v 13.061441 -6.484125 0.000001
v 14.408792 -6.607743 0.000001
v 4.412241 -22.426338 0.000004
v 11.683207 -6.087852 0.000001
v 10.356928 -5.400758 0.000001
v 8.211176 -3.255008 0.000001
v 9.172953 -4.438983 0.000001
v 7.524088 -1.928732 0.000000
v 21.689783 2.144230 -0.000000
v 21.813410 0.796865 -0.000000
v 21.689783 -0.550500 0.000000
v 28.941416 5.994570 -0.000001
v 21.293512 3.522462 -0.000001
v 18.460672 6.994488 -0.000001
v 28.941416 13.099798 -0.000002
v 21.271845 20.205025 -0.000003
v 28.941416 20.205025 -0.000003
v 18.532709 14.419340 -0.000002
v 20.606424 4.848739 -0.000001
v 19.644648 6.032713 -0.000001
v 13.061441 8.077856 -0.000001
v 11.683207 7.681583 -0.000001
v -3.818624 14.419340 -0.000002
v 8.211176 4.848739 -0.000001
v -3.818624 8.207340 -0.000001
v 9.172953 6.032713 -0.000001
v 10.356928 6.994488 -0.000001
v 15.756159 8.077856 -0.000001
v 17.134394 7.681583 -0.000001
v 14.408792 8.201473 -0.000001
v 5.932688 20.205025 -0.000003
v 13.602274 20.205025 -0.000003
v 7.524088 3.522462 -0.000001
v -3.818624 1.995342 -0.000000
v -3.764150 -22.426338 0.000004
v -13.450766 -7.841925 0.000001
v -5.166128 -7.841925 0.000001
v -11.940542 -22.426338 0.000004
v -5.166128 -2.175003 0.000000
v 7.004190 0.796865 -0.000000
v 7.127817 -0.550500 0.000000
v 7.127817 2.144230 -0.000000
v -5.166128 3.491920 -0.000001
v -17.633688 -22.426338 0.000004
v -23.326864 -22.426338 0.000004
v -30.020041 -21.426338 0.000003
v -29.020041 -22.426338 0.000004
v -21.735403 -7.841925 0.000001
v -30.020041 -14.634131 0.000002
v -30.020041 -7.841925 0.000001
v -5.166128 9.158842 -0.000001
v -12.264151 9.158842 -0.000001
v -14.994284 14.419340 -0.000002
v -1.736868 20.205025 -0.000003
v -9.406454 20.205025 -0.000003
v -17.076040 20.205025 -0.000003
v -26.169943 14.419340 -0.000002
v -24.745596 20.205025 -0.000003
v -19.362204 9.158842 -0.000001
v -26.460226 9.158842 -0.000001
v -33.558247 9.158842 -0.000001
v -37.345631 14.419340 -0.000002
v -40.656300 9.158842 -0.000001
v -47.754322 9.158842 -0.000001
v -47.754322 14.681932 -0.000002
v -32.415180 20.205025 -0.000003
v -40.084766 20.205025 -0.000003
v -47.754322 20.205025 -0.000003
vn 0.0000 -0.0000 -1.0000
s 1
f 2//1 4//1 1//1
f 1//1 6//1 5//1
f 5//1 8//1 7//1
f 7//1 10//1 9//1
f 3//1 11//1 12//1
f 2//1 11//1 3//1
f 14//1 3//1 15//1
f 16//1 17//1 2//1
f 15//1 3//1 12//1
f 18//1 19//1 13//1
f 20//1 18//1 13//1
f 21//1 19//1 18//1
f 13//1 22//1 20//1
f 2//1 22//1 13//1
f 22//1 2//1 17//1
f 1//1 23//1 24//1
f 2//1 1//1 24//1
f 25//1 4//1 14//1
f 16//1 2//1 24//1
f 26//1 23//1 1//1
f 1//1 27//1 26//1
f 5//1 28//1 29//1
f 5//1 30//1 28//1
f 29//1 27//1 1//1
f 14//1 4//1 3//1
f 31//1 19//1 32//1
f 33//1 32//1 19//1
f 34//1 19//1 31//1
f 33//1 19//1 21//1
f 35//1 34//1 31//1
f 34//1 36//1 37//1
f 38//1 39//1 37//1
f 40//1 38//1 37//1
f 41//1 42//1 34//1
f 34//1 42//1 36//1
f 41//1 34//1 35//1
f 43//1 44//1 45//1
f 46//1 47//1 48//1
f 48//1 47//1 49//1
f 49//1 45//1 44//1
f 50//1 40//1 51//1
f 51//1 40//1 37//1
f 52//1 40//1 50//1
f 40//1 43//1 45//1
f 53//1 54//1 40//1
f 52//1 43//1 40//1
f 38//1 40//1 54//1
f 55//1 56//1 47//1
f 36//1 51//1 37//1
f 1//1 5//1 29//1
f 25//1 6//1 4//1
f 5//1 58//1 59//1
f 60//1 6//1 57//1
f 5//1 59//1 61//1
f 62//1 63//1 56//1
f 63//1 30//1 56//1
f 64//1 62//1 56//1
f 61//1 65//1 56//1
f 56//1 30//1 5//1
f 5//1 61//1 56//1
f 67//1 8//1 66//1
f 60//1 66//1 8//1
f 68//1 67//1 69//1
f 68//1 10//1 67//1
f 7//1 70//1 58//1
f 71//1 9//1 10//1
f 70//1 9//1 72//1
f 71//1 10//1 68//1
f 49//1 47//1 45//1
f 55//1 47//1 46//1
f 65//1 47//1 56//1
f 74//1 45//1 73//1
f 73//1 45//1 47//1
f 76//1 53//1 45//1
f 45//1 53//1 40//1
f 77//1 76//1 45//1
f 78//1 77//1 75//1
f 45//1 75//1 77//1
f 79//1 78//1 75//1
f 75//1 74//1 81//1
f 55//1 64//1 56//1
f 79//1 81//1 82//1
f 83//1 79//1 82//1
f 84//1 79//1 83//1
f 85//1 84//1 83//1
f 86//1 87//1 85//1
f 80//1 79//1 88//1
f 84//1 88//1 79//1
f 89//1 88//1 84//1
f 90//1 89//1 87//1
f 84//1 87//1 89//1
f 87//1 84//1 85//1
f 81//1 79//1 75//1
f 2//1 3//1 4//1
f 1//1 4//1 6//1
f 5//1 6//1 8//1
f 7//1 8//1 10//1
f 2//1 13//1 11//1
f 25//1 57//1 6//1
f 5//1 7//1 58//1
f 60//1 8//1 6//1
f 67//1 10//1 8//1
f 7//1 9//1 70//1
f 71//1 72//1 9//1
f 65//1 73//1 47//1
f 74//1 75//1 45//1
f 79//1 80//1 78//1
